<?xml version="1.0" encoding="UTF-8" standalone="no"?><!DOCTYPE svg PUBLIC "-//W3C//DTD SVG 1.1//EN" "http://www.w3.org/Graphics/SVG/1.1/DTD/svg11.dtd"><svg id="svg" version="1.1" xmlns="http://www.w3.org/2000/svg" xmlns:xlink="http://www.w3.org/1999/xlink" width="400" height="400" viewBox="0 0 400 400"><g id="svgg"><path id="path0" d="M38.115 337.525 L 38.124 349.900 113.074 350.001 L 188.024 350.102 187.930 337.626 L 187.836 325.150 187.725 337.425 L 187.613 349.701 112.974 349.701 L 38.335 349.701 38.220 337.425 L 38.106 325.150 38.115 337.525 " stroke="none" fill="#d7b579" fill-rule="evenodd"></path><path id="path1" d="M0.000 199.601 L 0.000 399.202 200.000 399.202 L 400.000 399.202 400.000 199.601 L 400.000 0.000 200.000 0.000 L 0.000 0.000 0.000 199.601 M208.423 45.948 C 210.252 46.539,211.788 47.274,214.172 48.697 C 215.269 49.353,216.751 50.194,217.465 50.567 C 218.179 50.940,218.762 51.392,218.762 51.571 C 218.762 51.750,218.951 51.896,219.181 51.896 C 219.411 51.896,220.544 52.480,221.699 53.194 C 222.854 53.907,224.148 54.707,224.574 54.971 C 225.001 55.235,226.158 55.877,227.146 56.398 C 228.134 56.920,229.571 57.707,230.339 58.148 C 231.108 58.589,232.545 59.404,233.533 59.958 C 234.521 60.513,235.958 61.349,236.727 61.817 C 237.495 62.285,238.393 62.792,238.723 62.945 C 239.052 63.097,240.639 63.997,242.249 64.944 C 243.859 65.892,245.259 66.667,245.362 66.667 C 245.464 66.667,246.482 67.259,247.624 67.982 C 248.766 68.706,250.329 69.612,251.098 69.995 C 251.866 70.379,253.034 71.019,253.693 71.417 C 255.003 72.211,256.621 73.132,259.681 74.826 C 260.778 75.434,261.856 76.069,262.076 76.236 C 262.295 76.403,263.283 76.988,264.271 77.535 C 265.259 78.082,266.697 78.885,267.465 79.319 C 268.234 79.753,269.698 80.573,270.719 81.142 C 271.740 81.710,273.308 82.638,274.204 83.203 C 275.100 83.769,275.939 84.232,276.070 84.232 C 276.200 84.232,277.506 85.005,278.972 85.951 C 280.438 86.896,281.906 87.772,282.236 87.897 C 283.038 88.200,290.291 92.469,290.901 92.996 C 291.166 93.226,291.575 93.413,291.809 93.413 C 292.043 93.413,293.149 94.042,294.266 94.810 C 295.383 95.579,296.546 96.208,296.851 96.208 C 297.156 96.208,297.405 96.366,297.405 96.560 C 297.405 96.754,297.720 97.021,298.104 97.153 C 298.488 97.285,299.521 97.841,300.399 98.389 C 301.277 98.936,302.799 99.792,303.781 100.291 C 305.935 101.385,309.736 105.119,310.623 107.012 C 310.976 107.766,311.515 108.905,311.820 109.543 C 312.288 110.521,312.353 119.602,312.231 167.427 L 312.086 224.152 311.080 226.672 C 309.319 231.087,306.334 233.629,296.533 239.062 C 295.724 239.510,294.335 240.336,293.447 240.897 C 292.559 241.457,291.770 241.916,291.695 241.916 C 291.619 241.916,289.454 243.174,286.883 244.711 C 284.311 246.248,282.150 247.505,282.080 247.505 C 282.010 247.505,279.565 248.942,276.647 250.699 C 273.729 252.455,271.292 253.892,271.233 253.892 C 271.109 253.892,265.187 257.297,264.271 257.895 C 263.942 258.110,263.313 258.461,262.874 258.677 C 262.435 258.892,261.357 259.513,260.479 260.057 C 259.601 260.601,258.253 261.357,257.485 261.737 C 256.717 262.118,255.549 262.808,254.890 263.271 C 254.232 263.734,253.154 264.372,252.495 264.690 C 251.836 265.008,251.208 265.358,251.098 265.468 C 250.988 265.579,250.269 266.014,249.501 266.437 C 248.733 266.860,248.014 267.309,247.904 267.435 C 247.495 267.906,245.898 268.663,245.315 268.663 C 244.982 268.663,244.711 268.813,244.711 268.998 C 244.711 269.182,244.306 269.537,243.812 269.787 C 243.318 270.037,242.196 270.687,241.317 271.232 C 240.439 271.777,239.092 272.537,238.323 272.920 C 237.555 273.303,235.992 274.208,234.850 274.932 C 233.707 275.656,232.495 276.248,232.155 276.248 C 231.815 276.248,231.537 276.394,231.537 276.573 C 231.537 276.752,230.953 277.203,230.240 277.575 C 229.526 277.948,228.403 278.597,227.745 279.017 C 227.086 279.438,226.233 279.795,225.848 279.811 C 225.464 279.827,225.150 280.024,225.150 280.249 C 225.150 280.474,224.746 280.831,224.251 281.041 C 223.757 281.251,222.635 281.868,221.756 282.412 C 220.878 282.956,219.531 283.710,218.762 284.087 C 217.994 284.464,216.916 285.074,216.367 285.443 C 208.073 291.020,202.389 291.202,194.012 286.159 C 192.717 285.379,190.115 283.901,188.224 282.870 C 187.784 282.631,187.335 282.344,187.226 282.232 C 187.116 282.120,186.352 281.675,185.529 281.243 C 184.706 280.811,184.032 280.318,184.032 280.149 C 184.032 279.979,183.754 279.840,183.414 279.840 C 183.074 279.840,181.813 279.212,180.612 278.443 C 179.410 277.675,178.251 277.046,178.036 277.046 C 177.821 277.046,177.645 276.866,177.645 276.647 C 177.645 276.427,177.300 276.248,176.880 276.248 C 176.459 276.248,176.055 276.095,175.981 275.909 C 175.855 275.587,173.239 274.020,170.659 272.721 C 170.000 272.390,169.371 272.001,169.261 271.858 C 169.152 271.715,168.792 271.481,168.463 271.337 C 168.134 271.193,167.146 270.629,166.267 270.084 C 165.389 269.540,164.042 268.788,163.273 268.414 C 162.505 268.040,161.337 267.356,160.679 266.893 C 160.020 266.430,158.942 265.791,158.283 265.473 C 157.242 264.970,154.872 263.599,152.272 261.997 C 151.846 261.735,150.599 261.038,149.501 260.449 C 148.403 259.860,147.415 259.267,147.305 259.130 C 147.196 258.994,146.747 258.686,146.307 258.447 C 142.899 256.590,141.434 255.743,140.918 255.332 C 140.589 255.070,139.780 254.596,139.122 254.278 C 138.463 253.960,136.990 253.115,135.848 252.399 C 134.705 251.683,133.689 251.098,133.589 251.098 C 133.489 251.098,130.023 249.063,125.885 246.576 C 119.318 242.628,112.286 238.666,105.628 235.162 C 102.882 233.717,99.657 230.409,98.115 227.457 L 96.806 224.950 96.698 200.399 C 96.538 164.141,97.108 110.165,97.661 109.182 C 97.908 108.743,98.346 107.881,98.634 107.267 C 99.635 105.131,105.150 99.800,106.359 99.800 C 106.472 99.800,107.931 98.992,109.602 98.004 C 111.273 97.016,112.712 96.208,112.800 96.208 C 112.887 96.208,113.941 95.579,115.143 94.810 C 116.344 94.042,117.422 93.413,117.538 93.413 C 117.654 93.413,118.709 92.799,119.883 92.048 C 121.056 91.298,122.631 90.339,123.383 89.918 C 124.135 89.498,125.586 88.688,126.607 88.120 C 127.628 87.551,129.196 86.623,130.092 86.058 C 130.988 85.493,131.904 85.030,132.128 85.030 C 132.352 85.030,132.535 84.850,132.535 84.631 C 132.535 84.411,132.723 84.232,132.953 84.232 C 133.183 84.232,134.355 83.603,135.556 82.834 C 136.757 82.066,137.835 81.437,137.951 81.437 C 138.067 81.437,139.097 80.845,140.239 80.122 C 141.381 79.398,142.944 78.493,143.713 78.109 C 144.481 77.726,145.828 76.968,146.707 76.424 C 147.585 75.880,148.663 75.257,149.102 75.038 C 149.862 74.660,150.882 74.054,153.792 72.250 C 154.506 71.808,155.404 71.338,155.788 71.205 C 156.173 71.073,156.487 70.806,156.487 70.612 C 156.487 70.418,156.846 70.259,157.285 70.259 C 157.725 70.259,158.084 70.107,158.084 69.921 C 158.084 69.735,158.802 69.258,159.681 68.862 C 160.559 68.466,161.277 67.990,161.277 67.804 C 161.277 67.617,161.637 67.465,162.076 67.465 C 162.515 67.465,162.874 67.285,162.874 67.066 C 162.874 66.846,163.239 66.667,163.685 66.667 C 164.131 66.667,164.588 66.428,164.700 66.136 C 164.812 65.844,165.525 65.361,166.284 65.063 C 167.043 64.765,167.665 64.376,167.665 64.197 C 167.665 64.018,168.005 63.872,168.420 63.872 C 168.836 63.872,169.279 63.603,169.406 63.273 C 169.532 62.944,169.986 62.675,170.413 62.675 C 170.841 62.675,171.251 62.537,171.324 62.369 C 171.498 61.969,176.389 59.082,176.892 59.082 C 177.105 59.082,177.619 58.767,178.034 58.383 C 178.449 57.999,179.474 57.332,180.312 56.901 C 181.151 56.469,182.735 55.563,183.832 54.886 C 184.930 54.210,186.457 53.345,187.226 52.965 C 188.727 52.222,190.097 51.421,190.419 51.097 C 190.529 50.987,191.158 50.630,191.816 50.305 C 192.475 49.979,193.900 49.171,194.984 48.509 C 199.433 45.791,204.784 44.771,208.423 45.948 M201.397 54.291 C 201.262 54.511,200.882 54.691,200.553 54.691 C 199.832 54.691,197.193 55.924,195.010 57.282 C 194.132 57.828,193.054 58.453,192.615 58.671 C 192.176 58.890,191.098 59.513,190.220 60.057 C 189.341 60.601,187.994 61.352,187.226 61.725 C 186.457 62.099,185.289 62.784,184.631 63.247 C 183.972 63.709,182.894 64.352,182.236 64.675 C 181.577 64.998,180.103 65.847,178.961 66.563 C 177.819 67.279,176.696 67.864,176.466 67.864 C 176.236 67.864,176.048 68.044,176.048 68.263 C 176.048 68.483,175.766 68.663,175.422 68.663 C 175.078 68.663,174.208 69.112,173.489 69.661 C 172.769 70.210,171.973 70.659,171.719 70.659 C 171.465 70.659,171.257 70.838,171.257 71.058 C 171.257 71.277,170.917 71.457,170.502 71.457 C 170.086 71.457,169.643 71.727,169.516 72.056 C 169.390 72.385,168.922 72.655,168.476 72.655 C 168.030 72.655,167.665 72.790,167.665 72.956 C 167.665 73.122,167.081 73.512,166.367 73.823 C 165.654 74.133,164.980 74.495,164.870 74.628 C 164.407 75.187,162.456 76.248,161.890 76.248 C 161.553 76.248,161.277 76.427,161.277 76.647 C 161.277 76.866,161.070 77.046,160.816 77.046 C 160.562 77.046,159.766 77.495,159.046 78.044 C 158.327 78.593,157.456 79.042,157.112 79.042 C 156.768 79.042,156.487 79.222,156.487 79.441 C 156.487 79.661,156.143 79.840,155.722 79.840 C 155.301 79.840,154.897 79.975,154.824 80.140 C 154.591 80.664,151.339 82.635,150.707 82.635 C 150.373 82.635,150.100 82.776,150.100 82.950 C 150.100 83.123,149.067 83.796,147.804 84.445 C 146.542 85.093,145.419 85.715,145.309 85.826 C 145.020 86.118,143.612 86.986,142.914 87.302 C 142.585 87.451,140.998 88.348,139.388 89.296 C 137.778 90.243,136.389 91.018,136.302 91.018 C 136.215 91.018,135.160 91.647,133.959 92.415 C 132.758 93.184,131.691 93.812,131.589 93.812 C 131.487 93.812,130.086 94.587,128.476 95.535 C 126.866 96.482,125.279 97.381,124.950 97.533 C 124.621 97.685,123.633 98.262,122.754 98.814 C 121.876 99.366,120.888 99.935,120.559 100.079 C 120.230 100.223,119.242 100.789,118.363 101.336 C 117.485 101.884,115.778 102.865,114.571 103.517 C 113.363 104.169,112.092 104.947,111.745 105.246 C 111.398 105.544,110.972 105.788,110.797 105.788 C 110.051 105.788,106.652 109.831,105.569 112.006 L 104.391 114.371 104.263 165.269 C 104.125 220.563,104.104 219.948,106.252 224.546 C 107.332 226.856,116.647 234.331,118.446 234.331 C 118.579 234.331,119.243 234.746,119.922 235.253 C 120.602 235.759,121.786 236.485,122.555 236.866 C 123.323 237.246,124.671 237.999,125.549 238.538 C 126.427 239.078,127.864 239.885,128.743 240.332 C 129.621 240.778,130.968 241.522,131.737 241.985 C 132.505 242.447,133.942 243.279,134.930 243.834 C 138.509 245.842,139.542 246.433,140.719 247.146 C 141.377 247.544,142.545 248.184,143.313 248.568 C 144.082 248.951,145.645 249.857,146.787 250.581 C 147.929 251.304,148.971 251.896,149.102 251.896 C 149.233 251.896,150.274 252.488,151.416 253.212 C 152.559 253.935,154.122 254.841,154.890 255.225 C 156.194 255.875,156.793 256.220,160.180 258.271 C 160.893 258.703,162.196 259.421,163.074 259.868 C 163.952 260.315,165.389 261.120,166.267 261.657 C 167.146 262.194,168.313 262.883,168.862 263.188 C 169.411 263.494,170.758 264.251,171.856 264.871 C 172.954 265.492,174.424 266.320,175.124 266.711 C 175.823 267.102,177.080 267.853,177.918 268.379 C 178.756 268.905,179.621 269.409,179.840 269.498 C 180.825 269.900,184.853 272.368,185.053 272.693 C 185.176 272.891,185.566 273.054,185.920 273.054 C 186.274 273.054,186.847 273.305,187.194 273.612 C 187.541 273.919,188.543 274.574,189.421 275.067 C 190.299 275.560,191.916 276.483,193.014 277.117 C 194.112 277.751,196.178 278.828,197.605 279.509 C 199.032 280.191,200.512 280.904,200.893 281.093 C 201.857 281.572,207.882 281.526,208.184 281.038 C 208.319 280.818,208.690 280.639,209.008 280.639 C 209.797 280.639,216.231 277.403,217.764 276.236 C 217.984 276.069,219.062 275.434,220.160 274.826 C 224.032 272.682,224.714 272.289,226.313 271.279 C 227.202 270.718,228.111 270.259,228.335 270.259 C 228.559 270.259,228.743 270.080,228.743 269.860 C 228.743 269.641,228.931 269.461,229.161 269.461 C 229.391 269.461,230.562 268.832,231.763 268.064 C 232.965 267.295,234.214 266.667,234.539 266.667 C 234.864 266.667,235.130 266.519,235.130 266.338 C 235.130 266.158,235.893 265.615,236.826 265.132 C 237.759 264.650,239.242 263.819,240.120 263.286 C 240.998 262.753,242.166 262.067,242.715 261.762 C 243.263 261.457,244.611 260.699,245.709 260.079 C 246.806 259.458,248.277 258.630,248.976 258.239 C 249.675 257.848,250.974 257.069,251.862 256.508 C 252.750 255.948,253.579 255.489,253.704 255.489 C 253.829 255.489,254.865 254.897,256.007 254.173 C 257.149 253.450,258.713 252.544,259.481 252.161 C 260.250 251.778,261.597 251.023,262.475 250.484 C 263.353 249.944,264.790 249.137,265.669 248.691 C 266.547 248.245,267.984 247.433,268.862 246.887 C 269.741 246.341,270.818 245.716,271.257 245.497 C 271.697 245.279,272.595 244.765,273.253 244.356 C 275.140 243.184,279.500 240.719,279.687 240.719 C 279.780 240.719,280.589 240.256,281.485 239.690 C 282.381 239.125,283.949 238.197,284.970 237.629 C 285.991 237.060,287.455 236.240,288.224 235.806 C 288.992 235.372,290.429 234.567,291.417 234.018 C 292.405 233.469,293.690 232.686,294.273 232.278 C 294.856 231.871,295.431 231.537,295.551 231.537 C 297.010 231.537,302.564 226.082,303.743 223.492 C 305.433 219.779,305.441 219.512,305.281 167.066 C 305.131 117.443,305.076 115.201,303.958 112.714 C 303.648 112.022,303.393 111.291,303.393 111.090 C 303.393 110.533,298.866 105.788,298.335 105.788 C 298.080 105.788,297.811 105.636,297.738 105.450 C 297.621 105.152,296.590 104.521,292.615 102.310 C 292.066 102.005,290.898 101.319,290.020 100.786 C 289.142 100.253,287.660 99.422,286.727 98.940 C 285.793 98.457,285.030 97.914,285.030 97.734 C 285.030 97.553,284.671 97.405,284.232 97.405 C 283.792 97.405,283.433 97.226,283.433 97.006 C 283.433 96.786,283.226 96.607,282.972 96.607 C 282.718 96.607,281.922 96.158,281.202 95.609 C 280.482 95.060,279.612 94.611,279.268 94.611 C 278.924 94.611,278.643 94.431,278.643 94.212 C 278.643 93.992,278.454 93.812,278.224 93.812 C 277.994 93.812,276.823 93.184,275.622 92.415 C 274.420 91.647,273.172 91.018,272.847 91.018 C 272.521 91.018,272.255 90.851,272.255 90.648 C 272.255 90.445,271.761 90.024,271.158 89.714 C 270.554 89.405,269.162 88.643,268.064 88.023 C 266.966 87.402,265.439 86.539,264.671 86.105 C 263.902 85.671,262.735 84.984,262.076 84.578 C 261.417 84.171,260.609 83.717,260.279 83.568 C 259.950 83.419,258.782 82.742,257.685 82.063 C 256.587 81.384,254.642 80.292,253.362 79.636 C 252.082 78.980,250.698 78.129,250.285 77.745 C 249.872 77.360,249.257 77.046,248.919 77.046 C 248.580 77.046,248.303 76.878,248.303 76.674 C 248.303 76.469,247.918 76.179,247.448 76.030 C 246.977 75.880,245.374 74.970,243.885 74.007 C 242.396 73.044,241.079 72.255,240.960 72.255 C 240.840 72.255,239.374 71.447,237.703 70.459 C 236.032 69.471,234.618 68.663,234.561 68.663 C 234.505 68.663,232.049 67.206,229.105 65.426 C 222.298 61.309,219.011 59.419,214.770 57.182 C 212.904 56.198,211.207 55.235,210.998 55.042 C 210.789 54.849,210.126 54.691,209.525 54.691 C 208.923 54.691,208.319 54.511,208.184 54.291 C 208.048 54.072,206.521 53.892,204.790 53.892 C 203.060 53.892,201.533 54.072,201.397 54.291 M179.441 127.345 L 179.441 149.900 176.223 150.015 C 171.367 150.188,171.775 151.805,171.433 131.038 L 171.142 113.373 168.248 113.373 L 165.354 113.373 165.089 119.461 C 164.944 122.809,164.880 147.285,164.947 173.852 L 165.070 222.156 167.825 222.275 C 171.788 222.447,171.430 225.531,171.655 189.306 L 171.856 157.093 173.054 156.837 C 173.713 156.697,185.254 156.560,198.703 156.534 L 223.154 156.487 223.154 160.108 C 223.154 165.348,225.447 164.846,200.930 164.967 L 179.840 165.070 179.641 197.804 L 179.441 230.539 176.447 230.671 C 171.084 230.907,158.171 230.292,157.452 229.765 C 156.430 229.019,156.148 106.425,157.165 105.301 C 157.771 104.632,158.623 104.586,168.630 104.684 L 179.441 104.790 179.441 127.345 M251.621 105.401 L 252.695 106.246 252.695 167.884 L 252.695 229.523 251.756 230.137 C 250.960 230.659,249.221 230.736,240.279 230.645 L 229.741 230.539 229.637 207.884 L 229.534 185.230 233.186 185.230 C 238.333 185.230,237.896 183.467,237.911 204.291 L 237.924 221.956 241.119 221.956 L 244.314 221.956 244.213 167.565 L 244.112 113.174 241.118 113.174 L 238.124 113.174 238.022 146.011 L 237.920 178.848 212.074 178.745 L 186.228 178.643 186.113 175.225 C 185.939 170.014,183.779 170.485,208.411 170.363 L 229.341 170.259 229.541 137.725 L 229.741 105.190 232.136 104.978 C 239.752 104.307,250.527 104.540,251.621 105.401 M188.224 337.725 L 188.224 350.299 113.198 350.400 C 53.441 350.481,38.108 350.399,37.855 350.001 C 37.472 349.398,37.412 325.596,37.792 325.215 C 37.939 325.068,71.846 324.993,113.141 325.049 L 188.224 325.150 188.224 337.725 " stroke="none" fill="#040407" fill-rule="evenodd"></path><path id="path2" d="M203.463 46.636 C 203.063 46.802,202.744 47.020,202.754 47.121 C 202.828 47.874,202.200 49.102,201.740 49.102 C 201.431 49.102,201.069 49.644,200.936 50.308 C 200.804 50.971,200.539 51.610,200.348 51.728 C 198.627 52.792,200.101 53.461,204.092 53.426 L 208.184 53.391 209.481 50.864 C 210.987 47.932,211.054 47.505,210.013 47.505 C 209.592 47.505,209.188 47.346,209.115 47.152 C 208.935 46.675,204.376 46.259,203.463 46.636 M233.023 63.154 C 231.630 65.302,232.086 67.465,233.932 67.465 C 234.152 67.465,234.331 67.601,234.331 67.767 C 234.331 67.933,234.915 68.323,235.629 68.634 C 236.342 68.945,237.596 69.617,238.415 70.128 C 239.234 70.640,240.177 71.058,240.511 71.058 C 240.845 71.058,241.118 71.238,241.118 71.457 C 241.118 72.815,242.679 71.633,243.595 69.581 L 244.611 67.306 243.068 66.188 C 242.219 65.573,241.436 65.070,241.329 65.070 C 241.221 65.070,240.150 64.441,238.949 63.673 C 237.748 62.904,236.577 62.275,236.347 62.275 C 236.116 62.275,235.928 62.096,235.928 61.876 C 235.928 60.753,234.043 61.582,233.023 63.154 M175.910 106.518 C 175.547 106.920,175.250 107.360,175.250 107.496 C 175.250 107.633,174.621 108.786,173.853 110.060 L 172.457 112.375 172.456 118.440 C 172.455 124.603,172.805 126.063,173.762 123.880 C 174.373 122.484,176.411 118.969,177.076 118.164 C 178.198 116.804,179.242 112.445,179.242 109.116 L 179.242 105.788 177.906 105.788 C 177.120 105.788,176.299 106.088,175.910 106.518 M163.523 128.121 C 163.111 128.877,162.412 130.134,161.969 130.915 C 161.526 131.696,160.770 133.054,160.288 133.932 C 159.807 134.810,159.019 136.180,158.539 136.975 C 157.716 138.338,157.672 138.826,157.775 145.359 L 157.884 152.295 159.144 149.900 C 161.004 146.364,163.152 142.803,163.864 142.074 C 164.395 141.530,164.473 140.319,164.380 134.089 L 164.271 126.747 163.523 128.121 M183.333 157.424 C 182.620 157.658,182.036 158.009,182.036 158.205 C 182.036 158.400,181.663 159.084,181.206 159.725 C 180.750 160.365,179.889 161.830,179.293 162.980 C 178.698 164.129,176.960 167.226,175.432 169.860 L 172.655 174.651 172.529 184.802 C 172.395 195.722,172.513 197.187,173.470 196.394 C 173.790 196.128,174.052 195.635,174.052 195.298 C 174.052 194.962,174.510 194.085,175.070 193.351 C 175.630 192.617,175.962 192.016,175.807 192.016 C 175.652 192.016,175.785 191.702,176.103 191.317 C 176.645 190.662,177.346 189.269,178.061 187.425 C 178.231 186.986,178.519 186.267,178.701 185.828 C 178.883 185.389,179.124 180.365,179.236 174.664 L 179.441 164.299 183.633 164.246 C 188.791 164.181,192.016 163.734,192.016 163.084 C 192.016 162.817,192.375 162.274,192.814 161.876 C 193.253 161.479,193.613 160.985,193.613 160.778 C 193.613 160.572,193.992 159.871,194.455 159.220 C 194.918 158.570,195.201 157.943,195.085 157.826 C 194.166 156.907,185.784 156.620,183.333 157.424 M164.069 189.321 C 164.068 189.596,163.830 190.269,163.539 190.818 C 162.465 192.850,159.901 197.461,158.863 199.228 C 157.180 202.092,156.830 223.694,158.483 222.662 C 158.922 222.388,159.281 221.771,159.281 221.292 C 159.281 220.813,159.733 219.884,160.285 219.228 C 160.837 218.572,161.566 217.436,161.906 216.702 C 162.980 214.383,163.659 213.370,164.071 213.473 C 164.332 213.538,164.471 209.262,164.471 201.198 C 164.471 194.391,164.381 188.822,164.271 188.822 C 164.162 188.822,164.071 189.047,164.069 189.321 M103.972 223.122 C 103.764 223.507,103.076 224.884,102.444 226.182 C 101.812 227.481,101.138 228.603,100.947 228.676 C 99.839 229.099,102.539 233.134,103.929 233.134 C 104.267 233.134,104.655 233.313,104.790 233.533 C 105.472 234.636,106.809 233.845,107.894 231.697 C 108.889 229.729,108.940 229.442,108.392 228.894 C 107.373 227.875,105.390 224.840,105.377 224.279 C 105.349 223.135,104.393 222.347,103.972 223.122 M130.619 245.382 C 129.895 246.620,129.455 247.739,129.641 247.869 C 136.378 252.556,140.230 254.234,140.719 252.695 C 140.858 252.255,141.131 251.896,141.326 251.896 C 141.521 251.896,141.797 251.273,141.940 250.512 C 142.201 249.119,141.547 247.904,140.535 247.904 C 140.293 247.904,139.991 247.635,139.865 247.305 C 139.739 246.976,139.357 246.707,139.017 246.707 C 138.677 246.707,137.810 246.257,137.090 245.709 C 136.371 245.160,135.590 244.711,135.356 244.711 C 135.122 244.711,134.930 244.531,134.930 244.311 C 134.930 244.092,134.581 243.912,134.155 243.912 C 133.729 243.912,133.269 243.733,133.134 243.513 C 132.614 242.671,131.889 243.210,130.619 245.382 M75.349 325.249 C 96.043 325.307,129.905 325.307,150.599 325.249 C 171.292 325.192,154.361 325.146,112.974 325.146 C 71.587 325.146,54.656 325.192,75.349 325.249 M38.265 350.201 C 38.430 350.366,72.148 350.456,113.195 350.400 L 187.824 350.299 112.894 350.100 C 71.683 349.990,38.099 350.035,38.265 350.201 " stroke="none" fill="#368e41" fill-rule="evenodd"></path><path id="path3" d="M199.645 46.740 C 198.031 47.385,195.819 48.450,195.608 48.682 C 195.499 48.803,194.780 49.236,194.012 49.644 C 191.019 51.234,188.957 52.388,187.425 53.328 C 186.547 53.867,185.559 54.426,185.230 54.570 C 184.900 54.714,184.092 55.213,183.433 55.679 C 182.774 56.146,181.697 56.779,181.038 57.086 C 180.379 57.393,179.301 58.017,178.643 58.473 C 177.984 58.928,176.457 59.819,175.250 60.452 C 174.042 61.085,172.577 61.934,171.994 62.338 C 171.411 62.743,170.819 63.074,170.678 63.074 C 170.536 63.074,169.438 63.703,168.237 64.471 C 167.035 65.240,165.981 65.868,165.893 65.868 C 165.805 65.868,163.908 66.946,161.677 68.263 C 159.445 69.581,157.470 70.659,157.286 70.659 C 157.103 70.659,156.893 70.793,156.820 70.958 C 156.659 71.319,153.773 73.017,152.794 73.326 C 152.410 73.447,152.096 73.705,152.096 73.899 C 152.096 74.093,151.908 74.251,151.677 74.251 C 151.447 74.251,150.276 74.880,149.075 75.649 C 147.874 76.417,146.796 77.046,146.680 77.046 C 146.564 77.046,145.486 77.675,144.284 78.443 C 143.083 79.212,142.038 79.840,141.961 79.840 C 141.885 79.840,139.721 81.098,137.154 82.635 C 134.586 84.172,132.317 85.429,132.111 85.429 C 131.905 85.429,131.737 85.580,131.737 85.764 C 131.737 85.948,131.020 86.442,130.144 86.862 C 129.269 87.281,128.550 87.759,128.547 87.924 C 128.545 88.089,128.199 88.224,127.778 88.224 C 127.357 88.224,126.953 88.358,126.880 88.523 C 126.730 88.859,123.497 91.018,123.143 91.018 C 123.018 91.018,121.933 91.647,120.732 92.415 C 119.530 93.184,118.371 93.812,118.156 93.812 C 117.941 93.812,117.764 93.954,117.764 94.127 C 117.764 94.300,116.755 94.970,115.521 95.616 C 114.288 96.261,113.190 97.018,113.083 97.297 C 112.976 97.576,112.577 97.804,112.197 97.804 C 111.462 97.804,110.579 99.331,110.579 100.604 C 110.579 101.025,110.206 101.569,109.749 101.813 C 109.248 102.081,109.011 102.494,109.150 102.857 C 109.291 103.224,108.799 104.045,107.884 104.970 C 104.207 108.690,104.349 110.234,108.045 106.712 C 109.274 105.540,110.707 104.474,111.228 104.343 C 111.749 104.212,112.176 103.945,112.176 103.749 C 112.176 103.553,112.535 103.393,112.974 103.393 C 113.413 103.393,113.772 103.214,113.772 102.994 C 113.772 102.774,114.132 102.595,114.571 102.595 C 115.010 102.595,115.369 102.427,115.369 102.223 C 115.369 102.018,115.773 101.724,116.267 101.570 C 116.761 101.416,117.255 101.177,117.365 101.039 C 117.475 100.901,118.463 100.347,119.561 99.807 C 120.659 99.268,122.242 98.408,123.080 97.895 C 123.918 97.383,125.175 96.643,125.874 96.252 C 126.574 95.861,127.999 95.062,129.042 94.477 C 130.085 93.892,131.791 92.935,132.834 92.349 C 133.877 91.764,135.303 90.966,136.002 90.574 C 136.701 90.183,137.959 89.439,138.796 88.920 C 139.634 88.402,140.948 87.666,141.717 87.285 C 142.485 86.905,143.653 86.267,144.311 85.868 C 145.488 85.156,146.521 84.565,150.100 82.556 C 151.088 82.002,152.525 81.166,153.293 80.698 C 154.062 80.230,154.960 79.723,155.289 79.570 C 155.619 79.418,157.205 78.518,158.815 77.571 C 160.425 76.623,161.826 75.848,161.928 75.848 C 162.031 75.848,163.049 75.263,164.191 74.547 C 165.333 73.831,166.806 72.986,167.465 72.668 C 168.124 72.350,168.932 71.878,169.261 71.619 C 169.591 71.359,170.758 70.666,171.856 70.078 C 172.954 69.489,174.481 68.636,175.250 68.181 C 176.519 67.429,177.777 66.715,181.511 64.626 C 182.210 64.235,183.509 63.456,184.397 62.896 C 185.285 62.335,186.195 61.876,186.419 61.876 C 186.643 61.876,186.826 61.697,186.826 61.477 C 186.826 61.257,187.015 61.078,187.245 61.078 C 187.475 61.078,188.646 60.449,189.847 59.681 C 191.049 58.912,192.126 58.283,192.242 58.283 C 192.359 58.283,193.436 57.655,194.638 56.886 C 195.839 56.118,196.915 55.489,197.028 55.489 C 197.141 55.489,197.703 55.181,198.278 54.805 C 198.852 54.429,199.580 54.083,199.897 54.037 C 200.629 53.929,201.085 53.493,200.466 53.493 C 199.927 53.493,199.830 52.048,200.348 51.728 C 200.539 51.610,200.804 50.971,200.936 50.308 C 201.069 49.644,201.431 49.102,201.740 49.102 C 202.200 49.102,202.828 47.874,202.754 47.121 C 202.744 47.020,203.063 46.808,203.463 46.650 C 203.926 46.468,203.536 46.362,202.395 46.361 C 201.407 46.359,200.169 46.530,199.645 46.740 M157.746 105.727 C 156.901 106.572,156.887 106.792,156.939 118.862 C 156.984 129.478,157.410 142.337,157.616 139.300 C 157.654 138.739,158.189 137.481,158.806 136.505 C 159.423 135.529,160.204 134.192,160.542 133.533 C 161.722 131.227,163.791 127.540,164.189 127.033 C 164.409 126.752,164.678 123.474,164.785 119.748 L 164.981 112.974 168.299 112.974 C 171.038 112.974,171.688 113.096,172.024 113.673 C 172.379 114.282,172.432 114.244,172.444 113.373 C 172.451 112.824,173.085 111.333,173.853 110.060 C 174.621 108.786,175.250 107.596,175.250 107.414 C 175.250 107.232,175.527 106.854,175.865 106.573 C 177.054 105.587,175.721 105.363,167.195 105.116 C 158.769 104.872,158.590 104.883,157.746 105.727 M100.599 106.265 C 100.599 106.614,100.329 107.004,100.000 107.130 C 99.671 107.257,99.401 107.635,99.401 107.972 C 99.401 108.308,99.222 108.583,99.002 108.583 C 98.782 108.583,98.621 109.256,98.644 110.080 L 98.684 111.577 99.100 110.279 C 99.329 109.566,99.760 108.982,100.058 108.982 C 100.355 108.982,100.599 108.659,100.599 108.263 C 100.599 107.868,100.814 107.329,101.078 107.066 C 101.450 106.693,101.450 106.480,101.078 106.108 C 100.705 105.735,100.599 105.770,100.599 106.265 M103.393 112.231 C 103.393 112.482,103.079 112.916,102.695 113.197 C 101.825 113.833,102.252 114.334,103.363 113.982 C 104.212 113.712,104.589 111.776,103.792 111.776 C 103.573 111.776,103.393 111.981,103.393 112.231 M97.897 113.772 C 97.897 114.541,97.979 114.855,98.080 114.471 C 98.180 114.087,98.180 113.458,98.080 113.074 C 97.979 112.690,97.897 113.004,97.897 113.772 M101.597 115.070 C 101.501 115.344,101.445 115.838,101.473 116.168 C 101.613 117.838,101.416 118.277,100.768 117.739 C 100.246 117.306,100.077 117.315,99.780 117.790 C 99.535 118.183,99.607 118.404,100.011 118.492 C 100.773 118.660,100.767 119.322,100.000 119.616 C 99.671 119.742,99.401 120.096,99.401 120.402 C 99.401 121.450,98.258 120.969,98.115 119.860 C 97.768 117.180,97.397 146.383,97.305 183.633 L 97.206 224.152 98.355 226.641 C 99.568 229.266,100.599 230.545,100.599 229.423 C 100.599 229.086,100.755 228.749,100.947 228.676 C 101.138 228.603,101.776 227.555,102.365 226.347 C 102.954 225.140,103.686 223.698,103.991 223.144 C 104.404 222.397,104.453 221.728,104.180 220.550 C 103.977 219.676,103.807 210.968,103.802 201.198 C 103.772 146.591,103.297 114.571,102.517 114.571 C 102.107 114.571,101.693 114.795,101.597 115.070 " stroke="none" fill="#043c9d" fill-rule="evenodd"></path><path id="path4" d="M279.441 88.581 C 279.441 89.305,279.009 90.199,278.283 90.976 C 277.646 91.658,277.300 92.216,277.513 92.216 C 277.727 92.216,278.152 92.440,278.458 92.715 C 279.779 93.899,280.230 94.212,280.622 94.212 C 280.851 94.212,281.038 94.391,281.038 94.611 C 281.038 94.830,281.382 95.010,281.803 95.010 C 282.224 95.010,282.628 95.168,282.701 95.361 C 282.774 95.554,283.463 96.053,284.232 96.471 C 287.602 98.300,293.624 101.969,293.746 102.268 C 293.819 102.448,294.223 102.595,294.644 102.595 C 295.065 102.595,295.409 102.731,295.409 102.897 C 295.409 103.063,295.903 103.422,296.507 103.696 C 297.420 104.110,298.992 105.293,300.736 106.879 C 302.000 108.030,304.180 110.885,304.185 111.397 C 304.189 111.738,304.347 112.187,304.537 112.395 C 305.707 113.683,305.788 117.258,305.774 167.143 C 305.759 220.446,305.787 219.571,304.006 223.706 C 302.795 226.517,295.782 232.735,293.822 232.735 C 293.597 232.735,293.413 232.914,293.413 233.134 C 293.413 233.353,293.230 233.533,293.006 233.533 C 292.782 233.533,291.866 233.996,290.970 234.561 C 289.488 235.497,288.549 236.036,284.232 238.432 C 283.463 238.858,282.655 239.343,282.435 239.510 C 282.216 239.677,281.138 240.312,280.040 240.920 C 275.036 243.696,274.443 244.054,274.318 244.372 C 274.245 244.558,273.934 244.711,273.627 244.711 C 273.320 244.711,272.087 245.339,270.885 246.108 C 269.684 246.876,268.513 247.505,268.283 247.505 C 268.053 247.505,267.864 247.667,267.864 247.865 C 267.864 248.063,267.370 248.414,266.766 248.644 C 265.391 249.169,263.317 250.402,263.140 250.798 C 263.067 250.963,262.663 251.098,262.242 251.098 C 261.821 251.098,261.477 251.269,261.477 251.478 C 261.477 251.688,260.803 252.173,259.980 252.558 C 259.157 252.942,257.549 253.849,256.406 254.573 C 255.264 255.296,254.223 255.888,254.092 255.888 C 253.961 255.888,252.871 256.517,251.670 257.285 C 250.468 258.054,249.414 258.683,249.327 258.683 C 249.239 258.683,247.851 259.461,246.241 260.412 C 243.463 262.053,242.008 262.883,237.625 265.330 C 236.582 265.912,235.639 266.496,235.529 266.627 C 235.419 266.759,234.611 267.248,233.733 267.715 C 232.854 268.182,230.519 269.512,228.543 270.671 C 226.567 271.830,224.591 272.978,224.152 273.223 C 223.713 273.468,221.196 274.948,218.560 276.513 C 215.924 278.077,212.870 279.759,211.773 280.250 C 210.677 280.740,209.469 281.298,209.087 281.489 C 208.123 281.972,200.503 281.928,200.200 281.437 C 200.064 281.218,199.631 281.038,199.237 281.038 C 198.521 281.038,196.923 280.253,192.814 277.885 C 191.607 277.189,189.990 276.311,189.222 275.934 C 188.453 275.558,187.735 275.134,187.625 274.992 C 187.515 274.850,185.629 273.800,183.433 272.658 C 181.238 271.517,179.381 270.420,179.308 270.221 C 179.039 269.490,177.246 269.828,177.246 270.610 C 177.246 271.022,176.976 271.583,176.647 271.856 C 175.156 273.093,177.319 276.647,179.562 276.647 C 179.825 276.647,180.040 276.826,180.040 277.046 C 180.040 277.265,180.250 277.445,180.507 277.445 C 180.765 277.445,181.259 277.694,181.605 277.999 C 181.952 278.304,183.134 279.032,184.232 279.617 C 186.630 280.896,187.756 281.561,188.024 281.857 C 188.134 281.978,188.897 282.391,189.721 282.774 C 190.544 283.157,191.218 283.642,191.218 283.851 C 191.218 284.060,191.577 284.232,192.016 284.232 C 192.455 284.232,192.814 284.369,192.814 284.537 C 192.814 284.704,193.560 285.198,194.470 285.634 C 197.109 286.898,197.605 287.196,197.605 287.520 C 197.605 287.687,198.018 287.824,198.523 287.824 C 199.028 287.824,199.666 288.049,199.940 288.323 C 200.278 288.662,201.842 288.822,204.790 288.822 C 207.739 288.822,209.303 288.662,209.641 288.323 C 209.915 288.049,210.553 287.824,211.058 287.824 C 211.563 287.824,211.976 287.666,211.976 287.472 C 211.976 287.278,212.290 287.014,212.675 286.884 C 213.353 286.657,213.806 286.393,216.028 284.930 C 216.612 284.546,217.376 284.232,217.726 284.232 C 218.077 284.232,218.363 284.084,218.363 283.903 C 218.363 283.722,219.127 283.180,220.060 282.697 C 220.993 282.215,222.475 281.382,223.353 280.846 C 224.232 280.311,225.579 279.559,226.347 279.176 C 227.116 278.793,228.679 277.887,229.821 277.164 C 230.963 276.440,231.993 275.848,232.109 275.848 C 232.225 275.848,233.303 275.220,234.504 274.451 C 235.705 273.683,236.772 273.054,236.874 273.054 C 237.042 273.054,242.457 269.984,243.912 269.063 C 244.242 268.855,245.140 268.381,245.908 268.010 C 246.677 267.639,247.844 266.957,248.503 266.494 C 249.162 266.031,250.240 265.388,250.898 265.066 C 251.557 264.743,253.030 263.893,254.172 263.177 C 255.315 262.462,256.341 261.876,256.454 261.876 C 256.566 261.876,258.506 260.790,260.764 259.462 C 263.023 258.134,265.185 256.877,265.569 256.667 C 267.405 255.669,268.080 255.273,268.263 255.090 C 268.373 254.980,268.822 254.694,269.261 254.455 C 272.016 252.954,273.976 251.828,275.401 250.928 C 276.297 250.363,277.141 249.900,277.276 249.900 C 277.411 249.900,277.998 249.567,278.581 249.159 C 279.164 248.751,280.449 247.968,281.437 247.418 C 282.425 246.869,285.466 245.137,288.195 243.569 C 290.924 242.001,293.211 240.719,293.277 240.719 C 293.344 240.719,294.381 240.090,295.582 239.321 C 296.783 238.553,297.873 237.924,298.004 237.924 C 298.135 237.924,299.225 237.295,300.426 236.527 C 301.627 235.758,302.709 235.130,302.830 235.130 C 304.377 235.130,309.090 230.356,310.660 227.198 L 311.976 224.551 311.851 168.064 C 311.767 129.790,311.591 111.191,311.305 110.379 C 310.113 106.988,306.788 102.196,305.628 102.196 C 305.505 102.196,304.458 101.600,303.301 100.872 C 302.144 100.144,300.569 99.258,299.800 98.902 C 299.032 98.547,298.007 97.885,297.522 97.432 C 297.037 96.978,296.458 96.607,296.236 96.607 C 295.820 96.607,293.866 95.578,291.419 94.072 C 289.822 93.089,287.776 91.975,284.631 90.376 C 283.423 89.762,282.345 89.140,282.236 88.995 C 282.126 88.849,281.632 88.604,281.138 88.450 C 280.644 88.296,280.240 88.002,280.240 87.797 C 280.240 87.593,280.060 87.425,279.840 87.425 C 279.621 87.425,279.441 87.945,279.441 88.581 M251.183 133.234 C 251.136 133.728,250.950 134.132,250.769 134.132 C 250.588 134.132,249.927 135.254,249.300 136.627 C 248.320 138.771,246.652 141.450,245.881 142.116 C 245.021 142.859,244.893 147.372,244.711 183.234 L 244.511 222.555 241.379 222.672 C 236.863 222.841,237.256 224.521,237.052 204.155 C 236.851 184.092,237.152 185.645,233.466 185.635 C 229.568 185.624,229.940 183.290,229.940 207.775 L 229.940 229.436 231.437 229.684 C 233.378 230.005,250.437 230.015,251.269 229.696 C 251.844 229.475,251.896 226.181,251.819 194.866 C 251.743 163.725,251.404 130.901,251.183 133.234 M235.828 160.185 C 235.444 161.120,235.130 162.085,235.130 162.331 C 235.130 162.576,234.852 163.007,234.513 163.288 C 234.174 163.570,233.101 165.445,232.130 167.456 C 231.158 169.467,229.999 171.442,229.553 171.845 C 229.107 172.249,228.743 172.910,228.743 173.315 C 228.743 173.720,228.596 174.052,228.417 174.052 C 228.061 174.052,226.179 177.215,226.407 177.430 C 226.724 177.727,232.446 178.443,234.508 178.443 L 236.727 178.443 236.727 168.463 C 236.727 162.974,236.682 158.484,236.627 158.485 C 236.572 158.485,236.213 159.251,235.828 160.185 " stroke="none" fill="#bc2204" fill-rule="evenodd"></path><path id="path5" d="M239.607 64.072 C 240.414 64.621,241.176 65.070,241.300 65.070 C 241.423 65.070,242.219 65.573,243.068 66.188 L 244.611 67.306 243.595 69.581 C 242.679 71.633,241.118 72.815,241.118 71.457 C 241.118 71.238,240.845 71.058,240.511 71.058 C 240.177 71.058,239.193 70.609,238.323 70.060 C 236.611 68.979,235.958 68.766,236.798 69.562 C 237.479 70.207,240.629 72.255,240.940 72.255 C 241.070 72.255,242.396 73.044,243.885 74.007 C 245.374 74.970,246.977 75.880,247.448 76.030 C 247.918 76.179,248.303 76.469,248.303 76.674 C 248.303 76.878,248.580 77.046,248.919 77.046 C 249.257 77.046,249.872 77.360,250.285 77.745 C 250.698 78.129,252.082 78.980,253.362 79.636 C 254.642 80.292,256.587 81.384,257.685 82.063 C 258.782 82.742,259.950 83.419,260.279 83.568 C 260.609 83.717,261.507 84.222,262.275 84.690 C 263.044 85.158,264.481 85.994,265.469 86.548 C 266.457 87.103,267.894 87.916,268.663 88.354 C 269.431 88.793,270.554 89.406,271.158 89.715 C 271.761 90.025,272.255 90.445,272.255 90.648 C 272.255 90.851,272.521 91.018,272.847 91.018 C 273.172 91.018,274.420 91.647,275.622 92.415 C 276.823 93.184,277.994 93.812,278.224 93.812 C 278.454 93.812,278.643 93.992,278.643 94.212 C 278.643 94.431,278.924 94.611,279.268 94.611 C 279.612 94.611,280.482 95.060,281.202 95.609 C 281.922 96.158,282.718 96.607,282.972 96.607 C 283.226 96.607,283.433 96.786,283.433 97.006 C 283.433 97.226,283.777 97.405,284.198 97.405 C 284.619 97.405,285.023 97.558,285.096 97.744 C 285.213 98.041,286.244 98.673,290.220 100.884 C 290.768 101.189,291.936 101.875,292.814 102.408 C 293.693 102.940,295.175 103.771,296.108 104.254 C 297.041 104.737,297.804 105.279,297.804 105.460 C 297.804 105.641,298.028 105.788,298.301 105.788 C 298.856 105.788,303.393 110.513,303.393 111.090 C 303.393 111.291,303.648 112.022,303.958 112.714 C 305.073 115.195,305.130 117.423,305.362 167.665 L 305.596 218.563 305.692 167.542 C 305.787 117.162,305.714 113.690,304.537 112.395 C 304.347 112.187,304.189 111.738,304.185 111.397 C 304.180 110.885,302.000 108.030,300.736 106.879 C 298.992 105.293,297.420 104.110,296.507 103.696 C 295.903 103.422,295.409 103.063,295.409 102.897 C 295.409 102.731,295.065 102.595,294.644 102.595 C 294.223 102.595,293.819 102.448,293.746 102.268 C 293.624 101.969,287.602 98.300,284.232 96.471 C 283.463 96.053,282.774 95.554,282.701 95.361 C 282.628 95.168,282.224 95.010,281.803 95.010 C 281.382 95.010,281.038 94.830,281.038 94.611 C 281.038 94.391,280.845 94.212,280.610 94.212 C 280.375 94.212,279.932 93.987,279.626 93.713 C 278.324 92.545,277.857 92.216,277.501 92.216 C 277.294 92.216,277.646 91.658,278.283 90.976 C 279.009 90.199,279.441 89.305,279.441 88.581 C 279.441 87.945,279.621 87.425,279.840 87.425 C 280.060 87.425,280.240 87.593,280.240 87.797 C 280.240 88.002,280.644 88.296,281.138 88.450 C 281.632 88.604,282.126 88.849,282.236 88.995 C 282.345 89.140,283.423 89.762,284.631 90.376 C 287.776 91.975,289.822 93.089,291.419 94.072 C 293.866 95.578,295.820 96.607,296.236 96.607 C 296.458 96.607,297.037 96.978,297.522 97.432 C 298.007 97.885,299.032 98.547,299.800 98.902 C 300.569 99.258,302.144 100.144,303.301 100.872 C 304.458 101.600,305.505 102.196,305.628 102.196 C 305.935 102.196,308.671 105.063,309.270 106.013 C 309.796 106.846,310.591 108.508,311.321 110.298 C 311.648 111.100,311.795 120.961,311.840 145.228 C 311.901 177.272,311.923 178.217,312.251 163.273 C 312.708 142.514,312.505 110.652,311.910 109.581 C 311.665 109.142,311.131 108.075,310.723 107.211 C 309.744 105.141,306.020 101.429,303.781 100.291 C 302.799 99.792,301.277 98.936,300.399 98.389 C 299.521 97.841,298.488 97.285,298.104 97.153 C 297.720 97.021,297.405 96.754,297.405 96.560 C 297.405 96.366,297.156 96.208,296.851 96.208 C 296.546 96.208,295.383 95.579,294.266 94.810 C 293.149 94.042,292.043 93.413,291.809 93.413 C 291.575 93.413,291.166 93.226,290.901 92.996 C 290.291 92.469,283.038 88.200,282.236 87.897 C 281.906 87.772,280.438 86.896,278.972 85.951 C 277.506 85.005,276.200 84.232,276.070 84.232 C 275.939 84.232,275.106 83.773,274.218 83.212 C 273.329 82.651,272.031 81.873,271.331 81.481 C 270.632 81.090,269.251 80.317,268.263 79.762 C 267.275 79.208,265.569 78.256,264.471 77.647 C 263.373 77.038,262.295 76.403,262.076 76.236 C 261.856 76.069,260.778 75.434,259.681 74.826 C 256.621 73.132,255.003 72.211,253.693 71.417 C 253.034 71.019,251.866 70.383,251.098 70.006 C 250.329 69.628,249.251 69.017,248.703 68.648 C 248.154 68.279,246.627 67.384,245.309 66.658 C 243.992 65.932,242.285 64.992,241.517 64.568 C 240.749 64.144,239.949 63.634,239.741 63.435 C 239.532 63.237,239.086 63.074,238.750 63.074 C 238.413 63.074,238.799 63.523,239.607 64.072 M232.136 104.978 L 229.741 105.190 229.541 137.725 L 229.341 170.259 208.411 170.363 C 183.779 170.485,185.939 170.014,186.113 175.225 L 186.228 178.643 212.074 178.745 L 237.920 178.848 238.022 146.011 L 238.124 113.174 241.118 113.174 L 244.112 113.174 244.213 167.565 L 244.314 221.956 241.119 221.956 L 237.924 221.956 237.911 204.291 C 237.896 183.467,238.333 185.230,233.186 185.230 L 229.534 185.230 229.637 207.884 L 229.741 230.539 240.279 230.645 C 249.221 230.736,250.960 230.659,251.756 230.137 L 252.695 229.523 252.695 167.884 L 252.695 106.246 251.621 105.401 C 250.527 104.540,239.752 104.307,232.136 104.978 M251.819 194.866 C 251.896 226.181,251.844 229.475,251.269 229.696 C 250.437 230.015,233.378 230.005,231.437 229.684 L 229.940 229.436 229.940 207.775 C 229.940 183.290,229.568 185.624,233.466 185.635 C 237.152 185.645,236.851 184.092,237.052 204.155 C 237.256 224.521,236.863 222.841,241.379 222.672 L 244.511 222.555 244.711 183.234 C 244.893 147.372,245.021 142.859,245.881 142.116 C 246.652 141.450,248.320 138.771,249.300 136.627 C 249.927 135.254,250.588 134.132,250.769 134.132 C 250.950 134.132,251.136 133.728,251.183 133.234 C 251.404 130.901,251.743 163.725,251.819 194.866 M189.222 156.708 C 189.551 156.779,190.810 156.945,192.019 157.078 C 195.173 157.423,195.520 157.724,194.468 159.202 C 193.998 159.862,193.613 160.572,193.613 160.778 C 193.613 160.985,193.253 161.479,192.814 161.876 C 192.375 162.274,192.016 162.826,192.016 163.104 C 192.016 163.434,191.084 163.704,189.321 163.883 C 182.350 164.591,185.254 164.793,202.923 164.830 C 225.185 164.877,223.154 165.351,223.154 160.108 L 223.154 156.487 205.888 156.533 C 196.392 156.559,188.892 156.638,189.222 156.708 M236.727 168.463 L 236.727 178.443 234.508 178.443 C 232.446 178.443,226.724 177.727,226.407 177.430 C 226.179 177.215,228.061 174.052,228.417 174.052 C 228.596 174.052,228.743 173.720,228.743 173.315 C 228.743 172.910,229.107 172.249,229.553 171.845 C 229.999 171.442,231.158 169.467,232.130 167.456 C 233.101 165.445,234.174 163.570,234.513 163.288 C 234.852 163.007,235.130 162.576,235.130 162.331 C 235.130 161.873,236.447 158.487,236.627 158.485 C 236.682 158.484,236.727 162.974,236.727 168.463 M179.339 177.485 C 179.285 181.020,179.047 184.523,178.809 185.270 C 177.966 187.917,176.847 190.418,176.103 191.317 C 175.785 191.702,175.652 192.016,175.807 192.016 C 175.962 192.016,175.630 192.617,175.070 193.351 C 174.510 194.085,174.052 194.962,174.052 195.298 C 174.052 195.635,173.803 196.116,173.500 196.368 C 172.616 197.102,172.460 196.096,172.402 189.289 C 172.363 184.701,172.266 183.566,172.038 185.030 C 171.867 186.128,171.690 192.505,171.644 199.202 C 171.599 205.898,171.449 213.802,171.310 216.766 L 171.058 222.156 168.064 222.156 L 165.070 222.156 164.862 209.182 C 164.670 197.181,164.647 196.859,164.563 204.890 C 164.504 210.444,164.327 213.537,164.071 213.473 C 163.659 213.370,162.980 214.383,161.906 216.702 C 161.566 217.436,160.837 218.572,160.285 219.228 C 159.733 219.884,159.281 220.813,159.281 221.292 C 159.281 221.771,158.922 222.388,158.483 222.662 C 157.699 223.152,157.685 223.061,157.685 217.502 C 157.685 209.741,157.246 210.833,156.822 219.650 C 156.434 227.726,156.566 229.342,157.668 229.931 C 158.973 230.630,179.176 230.975,179.433 230.303 C 179.551 229.994,179.600 216.537,179.542 200.399 C 179.484 184.261,179.392 173.950,179.339 177.485 M311.869 182.834 C 311.869 183.603,311.951 183.917,312.052 183.533 C 312.152 183.149,312.152 182.520,312.052 182.136 C 311.951 181.751,311.869 182.066,311.869 182.834 M311.885 222.754 C 311.885 223.743,311.963 224.147,312.058 223.653 C 312.153 223.159,312.153 222.350,312.058 221.856 C 311.963 221.362,311.885 221.766,311.885 222.754 M303.393 224.270 C 303.393 224.518,302.279 225.940,300.917 227.431 C 298.960 229.573,298.841 229.764,300.351 228.343 C 302.566 226.260,303.985 224.411,303.636 224.062 C 303.503 223.928,303.393 224.022,303.393 224.270 M290.000 234.693 C 289.791 234.892,288.992 235.401,288.224 235.825 C 283.873 238.224,282.796 238.836,282.435 239.118 C 282.216 239.289,280.599 240.197,278.842 241.136 C 277.086 242.074,275.172 243.172,274.589 243.577 C 274.006 243.981,273.355 244.311,273.141 244.311 C 272.927 244.311,272.515 244.626,272.224 245.010 C 271.774 245.604,271.779 245.634,272.255 245.210 C 272.563 244.935,273.123 244.711,273.500 244.711 C 273.877 244.711,274.245 244.558,274.318 244.372 C 274.442 244.057,275.121 243.648,280.140 240.865 C 281.183 240.286,282.216 239.677,282.435 239.509 C 282.655 239.342,283.733 238.708,284.830 238.100 C 288.904 235.844,289.639 235.420,290.408 234.882 C 290.841 234.579,291.012 234.331,290.787 234.331 C 290.563 234.331,290.209 234.494,290.000 234.693 M301.397 235.964 C 300.734 236.506,300.667 236.642,301.198 236.368 C 302.500 235.695,303.222 235.142,302.794 235.145 C 302.575 235.146,301.946 235.515,301.397 235.964 M286.427 244.572 C 284.671 245.580,282.425 246.858,281.437 247.411 C 280.449 247.965,279.164 248.751,278.581 249.159 C 277.998 249.567,277.411 249.900,277.276 249.900 C 277.141 249.900,276.297 250.363,275.401 250.928 C 273.976 251.828,272.016 252.954,269.261 254.455 C 268.822 254.694,268.373 254.980,268.263 255.090 C 268.080 255.273,267.405 255.669,265.569 256.667 C 265.185 256.877,263.023 258.134,260.764 259.462 C 258.506 260.790,256.566 261.876,256.454 261.876 C 256.341 261.876,255.315 262.462,254.172 263.177 C 253.030 263.893,251.557 264.743,250.898 265.066 C 250.240 265.388,249.162 266.031,248.503 266.494 C 247.844 266.957,246.677 267.639,245.908 268.010 C 245.140 268.381,244.242 268.855,243.912 269.063 C 242.457 269.984,237.042 273.054,236.874 273.054 C 236.772 273.054,235.705 273.683,234.504 274.451 C 233.303 275.220,232.225 275.848,232.109 275.848 C 231.993 275.848,230.963 276.440,229.821 277.164 C 228.679 277.887,227.116 278.793,226.347 279.176 C 225.579 279.559,224.232 280.311,223.353 280.846 C 222.475 281.382,220.993 282.215,220.060 282.697 C 219.127 283.180,218.363 283.722,218.363 283.903 C 218.363 284.084,218.077 284.232,217.726 284.232 C 217.376 284.232,216.612 284.546,216.028 284.930 C 213.806 286.393,213.353 286.657,212.675 286.884 C 212.290 287.014,211.976 287.278,211.976 287.472 C 211.976 287.666,211.563 287.824,211.058 287.824 C 210.553 287.824,209.915 288.049,209.641 288.323 C 209.303 288.662,207.739 288.822,204.790 288.822 C 201.842 288.822,200.278 288.662,199.940 288.323 C 199.666 288.049,199.028 287.824,198.523 287.824 C 198.018 287.824,197.605 287.687,197.605 287.520 C 197.605 287.196,197.109 286.898,194.470 285.634 C 193.560 285.198,192.814 284.704,192.814 284.537 C 192.814 284.369,192.455 284.232,192.016 284.232 C 191.577 284.232,191.218 284.060,191.218 283.851 C 191.218 283.642,190.544 283.157,189.721 282.774 C 188.897 282.391,188.134 281.978,188.024 281.857 C 187.756 281.561,186.630 280.896,184.232 279.617 C 183.134 279.032,181.952 278.304,181.605 277.999 C 181.259 277.694,180.765 277.445,180.507 277.445 C 180.250 277.445,180.040 277.265,180.040 277.046 C 180.040 276.826,179.825 276.647,179.562 276.647 C 177.319 276.647,175.156 273.093,176.647 271.856 C 176.976 271.583,177.246 271.022,177.246 270.610 C 177.246 269.828,179.039 269.490,179.308 270.221 C 179.381 270.420,181.238 271.517,183.433 272.658 C 185.629 273.800,187.515 274.850,187.625 274.992 C 187.735 275.134,188.453 275.558,189.222 275.934 C 189.990 276.311,191.607 277.189,192.814 277.885 C 196.923 280.253,198.521 281.038,199.237 281.038 C 199.631 281.038,200.064 281.218,200.200 281.437 C 200.503 281.928,208.123 281.972,209.087 281.489 C 209.469 281.298,210.677 280.740,211.773 280.250 C 212.870 279.759,215.924 278.077,218.560 276.513 C 221.196 274.948,223.713 273.468,224.152 273.223 C 224.591 272.978,226.567 271.830,228.543 270.671 C 230.519 269.512,232.854 268.182,233.733 267.715 C 234.611 267.248,235.419 266.759,235.529 266.627 C 235.639 266.496,236.627 265.887,237.725 265.274 C 242.083 262.841,243.428 262.074,246.241 260.412 C 247.851 259.461,249.239 258.683,249.327 258.683 C 249.414 258.683,250.468 258.054,251.670 257.285 C 252.871 256.517,253.961 255.888,254.092 255.888 C 254.223 255.888,255.264 255.296,256.406 254.573 C 257.549 253.849,259.157 252.942,259.980 252.558 C 260.803 252.173,261.477 251.688,261.477 251.478 C 261.477 251.269,261.821 251.098,262.242 251.098 C 262.663 251.098,263.067 250.963,263.140 250.798 C 263.317 250.402,265.391 249.169,266.766 248.644 C 267.370 248.414,267.864 248.063,267.864 247.865 C 267.864 247.667,268.034 247.505,268.241 247.505 C 268.817 247.505,271.518 245.836,271.298 245.616 C 271.191 245.509,270.599 245.756,269.981 246.164 C 268.122 247.393,267.340 247.852,265.669 248.696 C 264.790 249.140,263.353 249.944,262.475 250.484 C 261.597 251.023,260.250 251.778,259.481 252.161 C 258.713 252.544,257.149 253.450,256.007 254.173 C 254.865 254.897,253.829 255.489,253.704 255.489 C 253.579 255.489,252.744 255.952,251.849 256.517 C 250.953 257.083,249.385 258.010,248.363 258.579 C 247.342 259.147,245.878 259.972,245.110 260.410 C 244.341 260.849,243.263 261.458,242.715 261.763 C 242.166 262.067,240.998 262.753,240.120 263.286 C 239.242 263.819,237.759 264.650,236.826 265.132 C 235.893 265.615,235.130 266.158,235.130 266.338 C 235.130 266.519,234.864 266.667,234.539 266.667 C 234.214 266.667,232.965 267.295,231.763 268.064 C 230.562 268.832,229.391 269.461,229.161 269.461 C 228.931 269.461,228.743 269.641,228.743 269.860 C 228.743 270.080,228.559 270.259,228.335 270.259 C 228.111 270.259,227.195 270.722,226.300 271.288 C 224.817 272.223,223.879 272.762,219.561 275.158 C 218.792 275.585,217.984 276.070,217.764 276.237 C 216.222 277.408,209.796 280.639,209.008 280.639 C 208.690 280.639,208.319 280.818,208.184 281.038 C 207.882 281.526,201.857 281.572,200.893 281.093 C 200.512 280.904,199.032 280.191,197.605 279.509 C 196.178 278.828,194.112 277.751,193.014 277.117 C 191.916 276.483,190.299 275.560,189.421 275.067 C 188.543 274.574,187.541 273.919,187.194 273.612 C 186.847 273.305,186.274 273.054,185.920 273.054 C 185.566 273.054,185.176 272.891,185.053 272.693 C 184.853 272.368,180.825 269.900,179.840 269.498 C 179.621 269.409,178.756 268.905,177.918 268.379 C 177.080 267.853,175.823 267.102,175.124 266.711 C 174.424 266.320,172.954 265.492,171.856 264.871 C 170.758 264.251,169.411 263.494,168.862 263.188 C 168.313 262.883,167.146 262.194,166.267 261.657 C 165.389 261.120,163.952 260.315,163.074 259.868 C 162.196 259.421,160.893 258.703,160.180 258.271 C 156.793 256.220,156.194 255.875,154.890 255.225 C 154.122 254.841,152.559 253.935,151.416 253.212 C 150.274 252.488,149.244 251.896,149.127 251.896 C 149.010 251.896,147.970 251.312,146.816 250.599 C 144.606 249.233,143.535 248.642,138.829 246.198 C 136.491 244.984,136.160 244.887,137.126 245.697 C 137.784 246.250,138.638 246.704,139.022 246.705 C 139.406 246.706,139.721 246.892,139.721 247.118 C 139.721 247.345,140.035 247.649,140.419 247.795 C 142.015 248.399,142.789 251.896,141.326 251.896 C 141.131 251.896,140.858 252.255,140.719 252.695 C 140.371 253.791,139.793 253.708,136.651 252.111 L 133.932 250.728 135.329 251.892 C 136.098 252.532,137.535 253.459,138.523 253.952 C 139.511 254.445,140.589 255.065,140.918 255.329 C 141.434 255.743,142.885 256.582,146.307 258.447 C 146.747 258.686,147.196 258.994,147.305 259.130 C 147.415 259.267,148.403 259.860,149.501 260.449 C 150.599 261.038,151.846 261.735,152.272 261.997 C 154.872 263.599,157.242 264.970,158.283 265.473 C 158.942 265.791,160.020 266.430,160.679 266.893 C 161.337 267.356,162.505 268.040,163.273 268.414 C 164.042 268.788,165.389 269.540,166.267 270.084 C 167.146 270.629,168.134 271.193,168.463 271.337 C 168.792 271.481,169.152 271.715,169.261 271.858 C 169.371 272.001,170.000 272.390,170.659 272.721 C 173.239 274.020,175.855 275.587,175.981 275.909 C 176.055 276.095,176.459 276.248,176.880 276.248 C 177.300 276.248,177.645 276.427,177.645 276.647 C 177.645 276.866,177.821 277.046,178.036 277.046 C 178.251 277.046,179.410 277.675,180.612 278.443 C 181.813 279.212,183.074 279.840,183.414 279.840 C 183.754 279.840,184.032 279.979,184.032 280.149 C 184.032 280.318,184.706 280.811,185.529 281.243 C 186.352 281.675,187.116 282.120,187.226 282.232 C 187.335 282.344,187.784 282.631,188.224 282.870 C 190.115 283.901,192.717 285.379,194.012 286.159 C 202.389 291.202,208.073 291.020,216.367 285.443 C 216.916 285.074,217.994 284.464,218.762 284.087 C 219.531 283.710,220.878 282.956,221.756 282.412 C 222.635 281.868,223.757 281.251,224.251 281.041 C 224.746 280.831,225.150 280.474,225.150 280.249 C 225.150 280.024,225.464 279.827,225.848 279.811 C 226.233 279.795,227.086 279.438,227.745 279.017 C 228.403 278.597,229.526 277.948,230.240 277.575 C 230.953 277.203,231.537 276.752,231.537 276.573 C 231.537 276.394,231.815 276.248,232.155 276.248 C 232.495 276.248,233.707 275.656,234.850 274.932 C 235.992 274.208,237.555 273.303,238.323 272.920 C 239.092 272.537,240.439 271.777,241.317 271.232 C 242.196 270.687,243.318 270.037,243.812 269.787 C 244.306 269.537,244.711 269.182,244.711 268.998 C 244.711 268.813,244.982 268.663,245.315 268.663 C 245.898 268.663,247.495 267.906,247.904 267.435 C 248.014 267.309,248.733 266.860,249.501 266.437 C 250.269 266.014,250.988 265.579,251.098 265.468 C 251.208 265.358,251.836 265.008,252.495 264.690 C 253.154 264.372,254.232 263.734,254.890 263.271 C 255.549 262.808,256.717 262.118,257.485 261.737 C 258.253 261.357,259.601 260.601,260.479 260.057 C 261.357 259.513,262.435 258.892,262.874 258.677 C 263.313 258.461,263.942 258.109,264.271 257.893 C 264.839 257.521,266.676 256.462,270.680 254.200 C 271.656 253.649,274.341 252.073,276.647 250.699 C 278.952 249.325,281.467 247.843,282.236 247.406 C 287.383 244.477,289.820 243.022,289.820 242.879 C 289.820 242.625,289.817 242.627,286.427 244.572 M188.201 337.725 C 188.201 344.421,188.256 347.161,188.323 343.812 C 188.389 340.464,188.389 334.985,188.323 331.637 C 188.256 328.288,188.201 331.028,188.201 337.725 " stroke="none" fill="#684a06" fill-rule="evenodd"></path><path id="path6" d="M205.589 46.389 C 207.455 46.594,209.042 46.929,209.115 47.134 C 209.188 47.338,209.592 47.505,210.013 47.505 C 211.459 47.505,208.877 53.424,207.385 53.529 L 206.587 53.586 207.385 53.760 C 210.004 54.330,214.574 56.766,227.345 64.399 C 235.318 69.164,236.760 69.960,236.991 69.729 C 237.098 69.622,236.813 69.416,236.357 69.271 C 235.902 69.126,235.529 68.841,235.529 68.636 C 235.529 68.431,235.259 68.263,234.930 68.263 C 234.601 68.263,234.331 68.084,234.331 67.864 C 234.331 67.645,234.152 67.465,233.932 67.465 C 232.086 67.465,231.630 65.302,233.023 63.154 C 234.003 61.643,235.928 60.738,235.928 61.789 C 235.928 61.960,236.468 62.304,237.129 62.554 C 238.567 63.097,238.354 62.555,236.818 61.766 C 235.775 61.231,233.328 59.864,230.339 58.148 C 229.571 57.707,228.134 56.920,227.146 56.398 C 226.158 55.877,225.001 55.235,224.574 54.971 C 224.148 54.707,222.854 53.907,221.699 53.194 C 220.544 52.480,219.411 51.896,219.181 51.896 C 218.951 51.896,218.762 51.734,218.762 51.536 C 218.762 51.338,218.268 50.978,217.665 50.736 C 216.294 50.186,212.542 48.140,211.849 47.565 C 210.952 46.820,206.708 45.906,204.407 45.962 C 202.398 46.010,202.506 46.049,205.589 46.389 M176.647 105.389 C 176.028 105.655,176.231 105.739,177.545 105.760 L 179.242 105.788 179.242 109.116 C 179.242 112.445,178.198 116.804,177.076 118.164 C 176.411 118.969,174.373 122.484,173.762 123.880 C 172.848 125.965,172.455 124.634,172.449 119.438 C 172.446 116.651,172.269 114.102,172.056 113.772 C 171.803 113.381,171.667 119.335,171.663 130.976 C 171.656 151.897,171.244 150.207,176.298 150.018 L 179.441 149.900 179.552 128.343 C 179.682 102.900,179.824 104.024,176.647 105.389 M164.471 132.601 C 164.471 140.041,164.373 141.551,163.854 142.082 C 163.151 142.804,160.995 146.382,159.144 149.900 L 157.884 152.295 157.774 146.208 C 157.709 142.599,157.505 140.120,157.275 140.120 C 157.026 140.120,156.886 151.146,156.885 170.758 C 156.885 187.610,156.811 206.427,156.722 212.575 C 156.559 223.751,156.590 223.523,157.489 206.993 C 157.785 201.556,157.911 200.848,158.874 199.209 C 159.903 197.458,162.470 192.841,163.539 190.818 C 163.830 190.269,164.103 189.551,164.147 189.222 C 164.191 188.892,164.337 190.419,164.471 192.615 C 164.606 194.810,164.750 180.215,164.793 160.180 C 164.835 140.145,164.780 123.752,164.671 123.752 C 164.561 123.752,164.471 127.734,164.471 132.601 M173.054 156.837 L 171.856 157.093 171.751 171.832 C 171.694 179.938,171.740 186.477,171.854 186.363 C 171.967 186.250,172.212 183.541,172.396 180.345 L 172.732 174.533 175.471 169.801 C 176.978 167.199,178.698 164.129,179.293 162.980 C 179.889 161.830,180.750 160.365,181.206 159.725 C 181.663 159.084,182.036 158.384,182.036 158.169 C 182.036 157.695,183.434 157.312,186.627 156.910 C 188.324 156.697,186.869 156.605,181.637 156.595 C 177.575 156.588,173.713 156.697,173.054 156.837 M179.541 164.303 C 179.376 164.469,179.274 166.146,179.315 168.031 L 179.388 171.457 179.614 168.263 L 179.840 165.070 182.036 164.836 C 183.244 164.707,183.872 164.570,183.433 164.532 C 182.994 164.494,182.006 164.359,181.238 164.232 C 180.469 164.105,179.706 164.137,179.541 164.303 M105.389 224.548 C 105.389 224.893,107.622 228.124,108.392 228.894 C 108.940 229.442,108.889 229.729,107.894 231.697 C 106.809 233.845,105.472 234.636,104.790 233.533 C 104.655 233.313,104.240 233.138,103.869 233.142 C 103.497 233.147,104.299 233.859,105.650 234.724 C 108.310 236.428,108.879 236.761,115.768 240.640 C 118.293 242.061,122.964 244.796,126.148 246.716 C 135.346 252.265,137.620 253.383,132.450 249.815 C 131.087 248.874,129.815 247.995,129.625 247.861 C 129.360 247.676,131.044 244.354,132.024 243.129 C 132.106 243.027,132.521 243.162,132.947 243.428 C 133.373 243.694,133.979 243.912,134.293 243.912 C 134.607 243.912,134.932 244.119,135.017 244.371 C 135.101 244.624,135.415 244.748,135.716 244.648 C 136.050 244.537,135.733 244.202,134.898 243.785 C 134.147 243.411,132.814 242.663,131.936 242.123 C 131.058 241.584,129.621 240.777,128.743 240.331 C 127.864 239.885,126.427 239.078,125.549 238.538 C 124.671 237.999,123.323 237.246,122.555 236.866 C 121.786 236.485,120.602 235.759,119.922 235.253 C 119.243 234.746,118.573 234.331,118.433 234.331 C 118.293 234.331,117.196 233.703,115.995 232.934 C 114.794 232.166,113.700 231.537,113.564 231.537 C 112.628 231.537,108.476 228.072,106.473 225.618 C 105.877 224.888,105.389 224.406,105.389 224.548 " stroke="none" fill="#06751f" fill-rule="evenodd"></path><path id="path7" d="M199.176 46.446 C 197.954 46.919,196.068 47.847,194.984 48.509 C 193.900 49.171,192.475 49.979,191.816 50.305 C 191.158 50.630,190.529 50.987,190.419 51.097 C 190.097 51.421,188.727 52.222,187.226 52.965 C 186.457 53.345,184.930 54.210,183.832 54.886 C 182.735 55.563,181.151 56.469,180.312 56.901 C 179.474 57.332,178.449 57.999,178.034 58.383 C 177.619 58.767,177.105 59.082,176.892 59.082 C 176.468 59.082,171.580 61.888,171.257 62.317 C 171.148 62.463,170.713 62.648,170.293 62.728 C 169.872 62.809,169.450 63.105,169.356 63.388 C 169.244 63.724,169.646 63.638,170.521 63.137 C 175.963 60.023,176.959 59.481,177.235 59.481 C 177.407 59.481,177.746 59.241,177.989 58.948 C 178.233 58.655,179.288 57.992,180.334 57.474 C 181.380 56.957,182.774 56.151,183.433 55.683 C 184.092 55.215,184.900 54.714,185.230 54.570 C 185.559 54.426,186.547 53.867,187.425 53.328 C 188.957 52.388,191.019 51.234,194.012 49.644 C 194.780 49.236,195.499 48.802,195.608 48.680 C 196.945 47.198,202.876 45.734,206.367 46.026 C 207.966 46.160,208.672 46.113,208.184 45.905 C 206.611 45.235,201.514 45.542,199.176 46.446 M200.000 54.172 C 199.232 54.517,198.154 54.998,197.605 55.240 C 197.056 55.483,195.672 56.267,194.530 56.982 C 193.388 57.698,192.359 58.283,192.242 58.283 C 192.126 58.283,191.049 58.912,189.847 59.681 C 188.646 60.449,187.475 61.078,187.245 61.078 C 187.015 61.078,186.826 61.257,186.826 61.477 C 186.826 61.697,186.643 61.876,186.419 61.876 C 186.195 61.876,185.285 62.335,184.397 62.896 C 183.509 63.456,182.210 64.235,181.511 64.626 C 177.777 66.715,176.519 67.429,175.250 68.181 C 174.481 68.636,172.954 69.489,171.856 70.078 C 170.758 70.666,169.591 71.359,169.261 71.619 C 168.932 71.878,168.124 72.350,167.465 72.668 C 166.806 72.986,165.333 73.831,164.191 74.547 C 163.049 75.263,162.031 75.848,161.928 75.848 C 161.826 75.848,160.425 76.623,158.815 77.571 C 157.205 78.518,155.619 79.418,155.289 79.570 C 154.960 79.723,154.152 80.179,153.493 80.586 C 152.327 81.305,151.413 81.829,147.705 83.911 C 146.717 84.465,145.279 85.295,144.511 85.756 C 143.743 86.216,142.485 86.905,141.717 87.285 C 140.948 87.666,139.628 88.406,138.783 88.929 C 137.937 89.452,136.410 90.346,135.389 90.914 C 134.368 91.483,132.904 92.303,132.136 92.737 C 130.752 93.519,128.327 94.880,125.874 96.252 C 125.175 96.643,123.918 97.383,123.080 97.895 C 122.242 98.408,120.659 99.268,119.561 99.807 C 118.463 100.347,117.475 100.901,117.365 101.039 C 117.255 101.177,116.761 101.416,116.267 101.570 C 115.773 101.724,115.369 102.018,115.369 102.223 C 115.369 102.427,115.010 102.595,114.571 102.595 C 114.132 102.595,113.772 102.774,113.772 102.994 C 113.772 103.214,113.413 103.393,112.974 103.393 C 112.535 103.393,112.176 103.553,112.176 103.749 C 112.176 103.945,111.749 104.212,111.228 104.343 C 110.707 104.474,109.274 105.540,108.045 106.712 C 104.349 110.234,104.207 108.690,107.884 104.970 C 108.799 104.045,109.291 103.224,109.150 102.857 C 109.011 102.494,109.248 102.081,109.749 101.813 C 110.206 101.569,110.579 101.025,110.579 100.604 C 110.579 99.331,111.462 97.804,112.197 97.804 C 112.577 97.804,112.976 97.576,113.083 97.297 C 113.190 97.018,114.288 96.261,115.521 95.616 C 116.755 94.970,117.764 94.300,117.764 94.127 C 117.764 93.954,117.941 93.812,118.156 93.812 C 118.371 93.812,119.530 93.184,120.732 92.415 C 121.933 91.647,123.018 91.018,123.143 91.018 C 123.497 91.018,126.730 88.859,126.880 88.523 C 126.953 88.358,127.357 88.224,127.778 88.224 C 128.199 88.224,128.545 88.089,128.547 87.924 C 128.550 87.759,129.269 87.281,130.144 86.862 C 131.020 86.442,131.737 85.948,131.737 85.764 C 131.737 85.580,131.905 85.429,132.111 85.429 C 132.317 85.429,134.586 84.172,137.154 82.635 C 139.721 81.098,141.885 79.840,141.961 79.840 C 142.038 79.840,143.083 79.212,144.284 78.443 C 145.486 77.675,146.564 77.046,146.680 77.046 C 146.796 77.046,147.874 76.417,149.075 75.649 C 150.276 74.880,151.447 74.251,151.677 74.251 C 151.908 74.251,152.096 74.093,152.096 73.899 C 152.096 73.705,152.410 73.447,152.794 73.326 C 153.580 73.078,156.579 71.386,156.886 71.018 C 156.996 70.886,157.270 70.707,157.494 70.619 C 159.081 69.999,164.019 66.849,163.615 66.714 C 163.340 66.622,163.045 66.753,162.961 67.006 C 162.877 67.258,162.463 67.465,162.043 67.465 C 161.622 67.465,161.277 67.617,161.277 67.804 C 161.277 67.990,160.559 68.466,159.681 68.862 C 158.802 69.258,158.084 69.735,158.084 69.921 C 158.084 70.107,157.725 70.259,157.285 70.259 C 156.846 70.259,156.487 70.418,156.487 70.612 C 156.487 70.806,156.173 71.073,155.788 71.205 C 155.404 71.338,154.506 71.808,153.792 72.250 C 150.882 74.054,149.862 74.660,149.102 75.038 C 148.663 75.257,147.585 75.880,146.707 76.424 C 145.828 76.968,144.481 77.726,143.713 78.109 C 142.944 78.493,141.381 79.398,140.239 80.122 C 139.097 80.845,138.067 81.437,137.951 81.437 C 137.835 81.437,136.757 82.066,135.556 82.834 C 134.355 83.603,133.183 84.232,132.953 84.232 C 132.723 84.232,132.535 84.411,132.535 84.631 C 132.535 84.850,132.352 85.030,132.128 85.030 C 131.904 85.030,130.988 85.493,130.092 86.058 C 129.196 86.623,127.628 87.551,126.607 88.120 C 125.586 88.688,124.135 89.498,123.383 89.918 C 122.631 90.339,121.056 91.298,119.883 92.048 C 118.709 92.799,117.654 93.413,117.538 93.413 C 117.422 93.413,116.344 94.042,115.143 94.810 C 113.941 95.579,112.887 96.208,112.800 96.208 C 112.712 96.208,111.273 97.016,109.602 98.004 C 107.931 98.992,106.472 99.800,106.359 99.800 C 105.150 99.800,99.635 105.131,98.634 107.267 C 98.346 107.881,97.908 108.743,97.661 109.182 C 97.108 110.165,96.538 164.141,96.698 200.399 L 96.806 224.950 98.071 227.368 C 99.528 230.156,102.055 232.955,104.483 234.473 C 106.915 235.994,107.140 235.774,104.779 234.185 C 101.993 232.308,99.924 229.890,98.458 226.796 L 97.206 224.152 97.305 183.633 C 97.397 146.383,97.768 117.180,98.115 119.860 C 98.258 120.969,99.401 121.450,99.401 120.402 C 99.401 120.096,99.671 119.742,100.000 119.616 C 100.767 119.322,100.773 118.660,100.011 118.492 C 99.607 118.404,99.535 118.183,99.780 117.790 C 100.077 117.315,100.246 117.306,100.768 117.739 C 101.440 118.297,101.444 118.286,101.554 115.768 C 101.583 115.079,101.854 114.734,102.429 114.652 L 103.261 114.533 103.527 148.983 C 103.673 167.931,103.796 191.517,103.801 201.397 L 103.809 219.361 104.787 222.133 C 105.325 223.657,106.157 225.274,106.636 225.726 L 107.507 226.547 106.648 225.288 C 106.175 224.595,105.788 223.752,105.788 223.415 C 105.788 223.078,105.639 222.709,105.456 222.596 C 104.268 221.862,104.134 215.390,104.262 165.070 L 104.391 114.371 105.569 112.006 C 106.652 109.831,110.051 105.788,110.797 105.788 C 110.972 105.788,111.398 105.544,111.745 105.246 C 112.092 104.947,113.363 104.169,114.571 103.517 C 115.778 102.865,117.485 101.884,118.363 101.336 C 119.242 100.789,120.230 100.223,120.559 100.079 C 120.888 99.935,121.876 99.366,122.754 98.814 C 123.633 98.262,124.621 97.685,124.950 97.533 C 125.279 97.381,126.866 96.482,128.476 95.535 C 130.086 94.587,131.487 93.812,131.589 93.812 C 131.691 93.812,132.758 93.184,133.959 92.415 C 135.160 91.647,136.215 91.018,136.302 91.018 C 136.463 91.018,142.217 87.732,143.313 87.014 C 143.643 86.798,144.182 86.501,144.511 86.354 C 144.840 86.207,145.200 85.982,145.309 85.855 C 145.419 85.728,146.542 85.093,147.804 84.445 C 149.067 83.796,150.100 83.123,150.100 82.950 C 150.100 82.776,150.373 82.635,150.707 82.635 C 151.339 82.635,154.591 80.664,154.824 80.140 C 154.897 79.975,155.301 79.840,155.722 79.840 C 156.143 79.840,156.487 79.661,156.487 79.441 C 156.487 79.222,156.768 79.042,157.112 79.042 C 157.456 79.042,158.327 78.593,159.046 78.044 C 159.766 77.495,160.562 77.046,160.816 77.046 C 161.070 77.046,161.277 76.866,161.277 76.647 C 161.277 76.427,161.553 76.248,161.890 76.248 C 162.456 76.248,164.407 75.187,164.870 74.628 C 164.980 74.495,165.654 74.133,166.367 73.823 C 167.081 73.512,167.665 73.122,167.665 72.956 C 167.665 72.790,168.030 72.655,168.476 72.655 C 168.922 72.655,169.390 72.385,169.516 72.056 C 169.643 71.727,170.086 71.457,170.502 71.457 C 170.917 71.457,171.257 71.277,171.257 71.058 C 171.257 70.838,171.465 70.659,171.719 70.659 C 171.973 70.659,172.769 70.210,173.489 69.661 C 174.208 69.112,175.078 68.663,175.422 68.663 C 175.766 68.663,176.048 68.483,176.048 68.263 C 176.048 68.044,176.236 67.864,176.466 67.864 C 176.696 67.864,177.819 67.279,178.961 66.563 C 180.103 65.847,181.577 64.998,182.236 64.675 C 182.894 64.352,183.972 63.709,184.631 63.247 C 185.289 62.784,186.457 62.099,187.226 61.725 C 187.994 61.352,189.341 60.601,190.220 60.057 C 191.098 59.513,192.176 58.890,192.615 58.671 C 193.054 58.453,194.132 57.828,195.010 57.282 C 197.129 55.964,199.825 54.691,200.497 54.691 C 200.795 54.691,201.209 54.520,201.417 54.312 C 201.626 54.105,202.964 53.870,204.391 53.791 L 206.986 53.647 204.192 53.595 C 202.408 53.563,200.892 53.771,200.000 54.172 M167.665 64.197 C 167.665 64.376,167.043 64.765,166.284 65.063 C 165.525 65.361,164.815 65.836,164.707 66.118 C 164.517 66.611,166.430 65.697,168.252 64.423 C 168.942 63.940,168.955 63.872,168.352 63.872 C 167.974 63.872,167.665 64.018,167.665 64.197 M157.153 105.315 C 156.484 106.054,156.058 160.642,156.727 159.973 C 156.859 159.841,156.958 147.766,156.947 133.140 C 156.927 106.971,156.940 106.533,157.734 105.739 C 158.637 104.836,178.635 104.697,179.372 105.589 C 179.569 105.827,179.636 105.747,179.538 105.389 C 179.260 104.369,158.073 104.299,157.153 105.315 M101.078 107.066 C 100.814 107.329,100.599 107.868,100.599 108.263 C 100.599 108.659,100.355 108.982,100.058 108.982 C 99.760 108.982,99.329 109.566,99.100 110.279 L 98.684 111.577 98.644 110.080 C 98.621 109.256,98.782 108.583,99.002 108.583 C 99.222 108.583,99.401 108.308,99.401 107.972 C 99.401 107.635,99.671 107.257,100.000 107.130 C 100.329 107.004,100.599 106.614,100.599 106.265 C 100.599 105.770,100.705 105.735,101.078 106.108 C 101.450 106.480,101.450 106.693,101.078 107.066 M104.192 112.748 C 104.192 113.380,103.903 113.810,103.363 113.982 C 102.252 114.334,101.825 113.833,102.695 113.197 C 103.079 112.916,103.393 112.482,103.393 112.231 C 103.393 111.981,103.573 111.776,103.792 111.776 C 104.012 111.776,104.192 112.213,104.192 112.748 M98.080 114.471 C 97.979 114.855,97.897 114.541,97.897 113.772 C 97.897 113.004,97.979 112.690,98.080 113.074 C 98.180 113.458,98.180 114.087,98.080 114.471 M164.951 116.267 L 165.031 119.561 165.167 116.467 L 165.303 113.373 168.273 113.373 L 171.244 113.373 171.358 123.253 L 171.472 133.134 171.564 123.054 L 171.657 112.974 168.263 112.974 L 164.870 112.974 164.951 116.267 M108.256 227.742 C 108.732 228.289,109.192 228.665,109.280 228.578 C 109.491 228.367,108.092 226.747,107.698 226.747 C 107.529 226.747,107.780 227.194,108.256 227.742 M37.702 337.525 C 37.702 344.331,37.757 347.172,37.823 343.837 C 37.890 340.503,37.890 334.934,37.824 331.462 C 37.757 327.990,37.703 330.719,37.702 337.525 " stroke="none" fill="#041e59" fill-rule="evenodd"></path><path id="path8" d="M38.323 337.525 L 38.323 349.701 112.974 349.701 L 187.625 349.701 187.625 337.525 L 187.625 325.349 112.974 325.349 L 38.323 325.349 38.323 337.525 " stroke="none" fill="#ffffff" fill-rule="evenodd"></path></g></svg>